<svg xmlns="http://www.w3.org/2000/svg" viewBox="0 0 1440 320">
        <path fill="#5dbeffff" fill-opacity="0.35"
            d="M0,96L40,101.3C80,107,160,117,240,149.3C320,181,400,235,480,234.7C560,235,640,181,720,160C800,139,880,149,960,170.7C1040,192,1120,224,1200,208C1280,192,1360,128,1400,96L1440,64L1440,320L1400,320C1360,320,1280,320,1200,320C1120,320,1040,320,960,320C880,320,800,320,720,320C640,320,560,320,480,320C400,320,320,320,240,320C160,320,80,320,40,320L0,320Z">
        </path>
    </svg>